<svg width="58" height="59" viewBox="0 0 58 59" fill="none" xmlns="http://www.w3.org/2000/svg">
<path d="M57.8532 0.147949H0.14658V58.8514H57.8532V0.147949Z" fill="white" stroke="#009561" stroke-width="0.9"/>
<path d="M15.574 4.20068H4.26095V28.3733H10.5011V19.2406H15.574C18.1823 19.2406 19.6005 17.8206 19.6005 15.2574V8.5364C19.6005 5.34062 18.1725 4.20068 15.574 4.20068ZM11.9519 13.9231H10.3707V9.4556H11.9323C12.5583 9.4556 12.9104 10.332 12.9104 10.836V12.5657C12.9072 12.9578 12.6463 13.9231 11.9519 13.9231Z" fill="#009561"/>
<path d="M45.95 20.7561C45.95 21.6226 45.9207 25.932 45.9207 26.5876C45.9308 27.2152 46.1311 27.8247 46.4945 28.3337H53.2465C53.2465 28.3337 52.4216 26.6864 52.4216 25.4279V20.6869C52.4216 15.8933 47.9388 16.2227 47.9388 16.2227C50.547 16.2227 51.9685 15.3694 51.9685 12.8062V8.52322C51.9685 5.32744 50.5372 4.1875 47.9388 4.1875H36.6289V28.3733H42.8691V19.2406H44.6883C45.4023 19.2406 45.95 19.8995 45.95 20.7561ZM44.3199 13.9132H42.7419V9.45559H44.3003C44.9263 9.45559 45.2784 10.332 45.2784 10.836V12.5657C45.2719 12.9578 45.0143 13.9231 44.3199 13.9231V13.9132Z" fill="#009561"/>
<path d="M35.5921 4.20068L35.5366 28.3733H23.565C21.7457 28.3733 20.6307 27.1938 20.6307 24.3011V4.20398H26.6198V22.2651C26.6198 23.0525 27.0111 23.5829 27.8555 23.5829C28.0386 23.5989 28.2229 23.5743 28.3956 23.5108C28.5683 23.4473 28.7252 23.3465 28.8553 23.2153C28.9855 23.0841 29.0856 22.9258 29.1489 22.7514C29.2121 22.5771 29.2369 22.3908 29.2215 22.2058V4.20068H35.5921Z" fill="#009561"/>
<path d="M49.7384 39.8088C49.7384 40.3492 49.7188 43.0409 49.7188 43.4329C49.7275 43.82 49.8513 44.1954 50.0742 44.5103H54.2897C54.0076 43.944 53.8329 43.3294 53.7746 42.6982V39.7331C53.7746 36.7416 50.9773 36.9425 50.9773 36.9425C52.6074 36.9425 53.4909 36.4121 53.4909 34.8142V32.1785C53.4909 30.182 52.6009 29.4736 50.9773 29.4736H43.9221V44.5564H47.8148V38.8765H48.9494C49.0618 38.8852 49.1714 38.9163 49.272 38.9679C49.3725 39.0195 49.462 39.0907 49.5353 39.1773C49.6086 39.2639 49.6642 39.3642 49.6991 39.4726C49.7339 39.581 49.7473 39.6953 49.7384 39.8088ZM48.7179 35.5258H47.7398V32.7518H48.7179C49.1124 32.7518 49.3276 33.2987 49.3276 33.615V34.6923C49.3145 34.9394 49.1548 35.539 48.7179 35.539V35.5258Z" fill="#009561"/>
<path d="M43.2733 29.4736L43.2342 44.5564H35.7682C34.6369 44.5564 33.9457 43.8184 33.9457 42.0162V29.4736H37.6755V40.7445C37.6609 40.8523 37.6705 40.962 37.7036 41.0655C37.7366 41.169 37.7924 41.2637 37.8666 41.3425C37.9408 41.4213 38.0316 41.4822 38.1323 41.5207C38.233 41.5592 38.3409 41.5743 38.4482 41.5649C38.5626 41.5744 38.6777 41.5586 38.7854 41.5186C38.8932 41.4785 38.991 41.4152 39.072 41.333C39.153 41.2508 39.2153 41.1517 39.2545 41.0427C39.2938 40.9336 39.309 40.8173 39.2991 40.7017V29.4736H43.2733Z" fill="#009561"/>
<path d="M55.7211 29.9412C55.8277 30.0477 55.9117 30.1751 55.9677 30.3157C56.0238 30.4562 56.0508 30.6068 56.0471 30.7583C56.0507 30.9102 56.0236 31.0613 55.9676 31.2023C55.9115 31.3434 55.8277 31.4714 55.7211 31.5786C55.6153 31.689 55.4887 31.7768 55.3486 31.8367C55.2086 31.8967 55.0581 31.9276 54.906 31.9276C54.754 31.9276 54.6035 31.8967 54.4634 31.8367C54.3234 31.7768 54.1968 31.689 54.091 31.5786C53.9332 31.4159 53.8262 31.2099 53.7833 30.9862C53.7404 30.7626 53.7634 30.5311 53.8495 30.3205C53.9356 30.11 54.081 29.9296 54.2677 29.8019C54.4544 29.6741 54.6741 29.6045 54.8995 29.6019C55.0523 29.5974 55.2043 29.6252 55.3458 29.6837C55.4873 29.7421 55.6152 29.8298 55.7211 29.9412ZM55.8548 29.8127C55.7327 29.6856 55.5861 29.5851 55.424 29.5177C55.2619 29.4502 55.0878 29.4172 54.9125 29.4207C54.5615 29.4207 54.2248 29.5616 53.9766 29.8124C53.7283 30.0633 53.5889 30.4035 53.5889 30.7583C53.5866 30.9349 53.6194 31.1103 53.6855 31.2738C53.7516 31.4374 53.8496 31.5859 53.9736 31.7104C54.0969 31.8356 54.2435 31.935 54.4049 32.0028C54.5663 32.0706 54.7394 32.1055 54.9142 32.1055C55.089 32.1055 55.2621 32.0706 55.4235 32.0028C55.5849 31.935 55.7315 31.8356 55.8548 31.7104C55.9794 31.5861 56.0779 31.4378 56.1446 31.2742C56.2112 31.1106 56.2446 30.9352 56.2427 30.7583C56.2449 30.5823 56.2116 30.4078 56.1449 30.2452C56.0782 30.0827 55.9795 29.9355 55.8548 29.8127ZM55.0984 30.6957C55.0197 30.7223 54.9367 30.7335 54.8539 30.7286H54.6224V30.1949H54.8441C54.9503 30.1885 55.0564 30.2077 55.1538 30.2509C55.1884 30.2791 55.2153 30.3158 55.2319 30.3574C55.2485 30.3991 55.2543 30.4443 55.2487 30.4889C55.2432 30.5334 55.2265 30.5758 55.2001 30.612C55.1738 30.6482 55.1388 30.677 55.0984 30.6957ZM54.3648 31.4897H54.6224V30.9098H54.8278C54.9245 30.9037 55.0214 30.9195 55.1114 30.9559C55.1608 30.9941 55.1997 31.0444 55.2242 31.1021C55.2488 31.1598 55.2582 31.2229 55.2516 31.2854V31.4501C55.2529 31.4556 55.2529 31.4612 55.2516 31.4666H55.4929C55.4822 31.4416 55.4767 31.4147 55.4766 31.3875C55.4766 31.3513 55.4766 31.3118 55.4766 31.2788V31.1701C55.4739 31.0881 55.4466 31.0088 55.3983 30.9428C55.3686 30.9025 55.331 30.8688 55.2878 30.8438C55.2446 30.8189 55.1967 30.8032 55.1473 30.7978C55.2212 30.789 55.2923 30.7642 55.3559 30.7253C55.4032 30.694 55.4415 30.6508 55.4672 30.6C55.4929 30.5491 55.5052 30.4924 55.5027 30.4354C55.51 30.3567 55.4917 30.2777 55.4505 30.2105C55.4093 30.1433 55.3475 30.0915 55.2744 30.0631C55.1462 30.0208 55.0114 30.0029 54.8767 30.0104H54.3648V31.4897Z" fill="#009561"/>
<path d="M25.6352 29.4702H33.2348V32.6429H31.2722V44.6057H27.4544V32.6429H25.6352V29.4702Z" fill="#009561"/>
<path d="M19.0203 44.6091H15.3232V31.5031C15.3232 29.9744 15.9296 29.4736 17.1392 29.4736H23.3695C24.4617 29.4736 25.0323 30.3566 25.0323 31.5031V44.6091H20.9472V41.13H19.0203V44.6091ZM20.9472 37.7761V33.7171C20.9472 32.9923 20.7189 32.6496 19.9691 32.6496C19.2192 32.6496 19.0301 33.0285 19.0301 33.638C19.0301 34.2475 19.0301 37.7695 19.0301 37.7695L20.9472 37.7761Z" fill="#009561"/>
<path d="M4.27396 29.4736H12.7148C13.9635 29.4736 14.6709 29.9349 14.6709 31.5031V44.6091H10.5891V33.7171C10.6022 33.6 10.5903 33.4815 10.5542 33.3695C10.5181 33.2575 10.4586 33.1546 10.3798 33.0678C10.301 32.981 10.2047 32.9123 10.0974 32.8663C9.99008 32.8203 9.87425 32.7981 9.75772 32.8012C9.52415 32.8122 9.30365 32.9133 9.14169 33.0837C8.97973 33.2541 8.88865 33.4808 8.88723 33.7171V44.6091H4.80538V31.5031C4.80538 29.9349 4.27396 29.4736 4.27396 29.4736Z" fill="#009561"/>
<path d="M57.8368 49.1919H0.159594V58.855H57.8368V49.1919Z" fill="#009561"/>
<path d="M25.0061 57.1907V51.0924H26.271C26.5131 51.0861 26.7538 51.1299 26.9785 51.2209C27.1599 51.2945 27.3234 51.4069 27.4578 51.5503C27.5795 51.6965 27.6665 51.869 27.7121 52.0544C27.7676 52.2425 27.795 52.438 27.7936 52.6343V52.855C27.7959 52.9966 27.7828 53.138 27.7544 53.2767C27.7339 53.3826 27.6953 53.484 27.6403 53.5765C27.5316 53.7493 27.3798 53.8902 27.2002 53.9851C27.3921 54.0749 27.5499 54.2252 27.6501 54.4134C27.7555 54.6559 27.8046 54.9196 27.7936 55.1843V55.5138C27.8238 55.9598 27.6864 56.401 27.4089 56.7492C27.2445 56.9048 27.0494 57.0233 26.8364 57.0971C26.6235 57.171 26.3974 57.1984 26.1732 57.1775L25.0061 57.1907ZM25.87 51.9193V53.5996H26.2613C26.3685 53.6144 26.4777 53.6019 26.579 53.5634C26.6804 53.5248 26.7706 53.4614 26.8416 53.3788C26.9528 53.1866 27.005 52.9653 26.9916 52.743C27.0077 52.5244 26.949 52.3069 26.8253 52.1269C26.7474 52.0496 26.6534 51.9909 26.5502 51.955C26.447 51.9191 26.3371 51.9069 26.2286 51.9193H25.87ZM25.87 54.3705V56.3242H26.245C26.3861 56.3307 26.5268 56.3036 26.6557 56.2452C26.7503 56.1982 26.8287 56.1236 26.8807 56.031C26.9341 55.929 26.9652 55.8167 26.972 55.7016C26.9856 55.5658 26.9921 55.4294 26.9916 55.293C26.9923 55.1575 26.9836 55.0221 26.9655 54.8878C26.9522 54.7846 26.9166 54.6856 26.8611 54.5979C26.8049 54.5171 26.7251 54.456 26.6329 54.4232C26.5104 54.3804 26.381 54.3614 26.2515 54.3672L25.87 54.3705Z" fill="#FFF14B" stroke="#FFF14B" stroke-width="0.17"/>
<path d="M28.6413 57.1911V51.0928H29.5085V57.1911H28.6413Z" fill="#FFF14B" stroke="#FFF14B" stroke-width="0.17"/>
<path d="M30.294 52.5293C30.29 52.3031 30.3333 52.0785 30.4212 51.8704C30.4973 51.6927 30.6082 51.5325 30.7472 51.3992C30.8828 51.279 31.0399 51.1861 31.2102 51.1258C31.5465 50.9984 31.9171 50.9984 32.2535 51.1258C32.4254 51.1868 32.5846 51.2795 32.7229 51.3992C32.8622 51.5322 32.9731 51.6926 33.049 51.8704C33.1384 52.078 33.1818 52.3029 33.1761 52.5293V55.7514C33.1823 55.9779 33.1389 56.2029 33.049 56.4104C32.9739 56.5838 32.8627 56.7389 32.7229 56.865C32.5858 56.9889 32.4264 57.0851 32.2535 57.1484C31.9163 57.2714 31.5473 57.2714 31.2102 57.1484C31.0388 57.0857 30.8815 56.9894 30.7472 56.865C30.6079 56.7385 30.4967 56.5836 30.4212 56.4104C30.3328 56.2024 30.2895 55.9777 30.294 55.7514V52.5293ZM31.1613 55.7514C31.1538 55.8375 31.1654 55.9242 31.1953 56.0051C31.2252 56.0861 31.2726 56.1592 31.3341 56.2193C31.4502 56.3145 31.5953 56.3665 31.7449 56.3665C31.8944 56.3665 32.0395 56.3145 32.1556 56.2193C32.2171 56.1592 32.2645 56.0861 32.2944 56.0051C32.3243 55.9242 32.3359 55.8375 32.3284 55.7514V52.5293C32.3362 52.4437 32.3246 52.3575 32.2947 52.277C32.2648 52.1966 32.2172 52.124 32.1556 52.0648C32.0395 51.9695 31.8944 51.9176 31.7449 51.9176C31.5953 51.9176 31.4502 51.9695 31.3341 52.0648C31.2725 52.124 31.2249 52.1966 31.195 52.277C31.1651 52.3575 31.1535 52.4437 31.1613 52.5293V55.7514Z" fill="#FFF14B" stroke="#FFF14B" stroke-width="0.17"/>
</svg>
